HIERARCHY
ROOT mixamorig:Hips
{
	OFFSET -0.000008 104.274872 1.554316
	CHANNELS 6 Xposition Yposition Zposition Xrotation Yrotation Zrotation
	JOINT mixamorig:Spine
	{
		OFFSET -0.000005 10.181595 0.131519
		CHANNELS 6 Xposition Yposition Zposition Xrotation Yrotation Zrotation
		JOINT mixamorig:Spine1
		{
			OFFSET -0.000000 9.893959 -1.470707
			CHANNELS 6 Xposition Yposition Zposition Xrotation Yrotation Zrotation
			JOINT mixamorig:Spine2
			{
				OFFSET -0.000000 9.220757 -1.370641
				CHANNELS 6 Xposition Yposition Zposition Xrotation Yrotation Zrotation
				JOINT mixamorig:Neck
				{
					OFFSET 0.000001 16.740417 -2.049036
					CHANNELS 6 Xposition Yposition Zposition Xrotation Yrotation Zrotation
					JOINT mixamorig:Head
					{
						OFFSET 0.000000 9.617874 1.685006
						CHANNELS 6 Xposition Yposition Zposition Xrotation Yrotation Zrotation
						JOINT mixamorig:HeadTop_End
						{
							OFFSET 0.000002 22.037354 7.501101
							CHANNELS 6 Xposition Yposition Zposition Xrotation Yrotation Zrotation
							End Site
							{
								OFFSET 0.000168 2310.654297 -282.823242
							}
						}
					}
				}
				JOINT mixamorig:RightShoulder
				{
					OFFSET -4.569970 11.014908 -2.160885
					CHANNELS 6 Xposition Yposition Zposition Xrotation Yrotation Zrotation
					JOINT mixamorig:RightArm
					{
						OFFSET -10.592851 -0.524811 -2.232101
						CHANNELS 6 Xposition Yposition Zposition Xrotation Yrotation Zrotation
						JOINT mixamorig:RightForeArm
						{
							OFFSET -27.841511 0.000031 -0.000004
							CHANNELS 6 Xposition Yposition Zposition Xrotation Yrotation Zrotation
							JOINT mixamorig:RightHand
							{
								OFFSET -28.328831 -0.000015 0.000015
								CHANNELS 6 Xposition Yposition Zposition Xrotation Yrotation Zrotation
								JOINT mixamorig:RightHandThumb1
								{
									OFFSET -2.464806 -1.573990 2.681852
									CHANNELS 6 Xposition Yposition Zposition Xrotation Yrotation Zrotation
									JOINT mixamorig:RightHandThumb2
									{
										OFFSET -3.215179 -1.872803 1.924282
										CHANNELS 6 Xposition Yposition Zposition Xrotation Yrotation Zrotation
										JOINT mixamorig:RightHandThumb3
										{
											OFFSET -2.654831 -1.527969 1.512609
											CHANNELS 6 Xposition Yposition Zposition Xrotation Yrotation Zrotation
											JOINT mixamorig:RightHandThumb4
											{
												OFFSET -2.018814 -1.152008 1.108052
												CHANNELS 6 Xposition Yposition Zposition Xrotation Yrotation Zrotation
												End Site
												{
													OFFSET -188.809540 -114.533607 132.431396
												}
											}
										}
									}
								}
								JOINT mixamorig:RightHandIndex1
								{
									OFFSET -9.108284 -0.517868 2.259835
									CHANNELS 6 Xposition Yposition Zposition Xrotation Yrotation Zrotation
									JOINT mixamorig:RightHandIndex2
									{
										OFFSET -3.699989 0.000000 0.001215
										CHANNELS 6 Xposition Yposition Zposition Xrotation Yrotation Zrotation
										JOINT mixamorig:RightHandIndex3
										{
											OFFSET -2.850006 0.000031 -0.000522
											CHANNELS 6 Xposition Yposition Zposition Xrotation Yrotation Zrotation
											JOINT mixamorig:RightHandIndex4
											{
												OFFSET -2.772186 -0.000015 -0.000020
												CHANNELS 6 Xposition Yposition Zposition Xrotation Yrotation Zrotation
												End Site
												{
													OFFSET -277.218445 0.000000 -0.050231
												}
											}
										}
									}
								}
								JOINT mixamorig:RightHandMiddle1
								{
									OFFSET -9.532516 -0.000031 -0.000023
									CHANNELS 6 Xposition Yposition Zposition Xrotation Yrotation Zrotation
									JOINT mixamorig:RightHandMiddle2
									{
										OFFSET -3.700005 -0.000015 0.003713
										CHANNELS 6 Xposition Yposition Zposition Xrotation Yrotation Zrotation
										JOINT mixamorig:RightHandMiddle3
										{
											OFFSET -2.949974 0.000015 -0.002054
											CHANNELS 6 Xposition Yposition Zposition Xrotation Yrotation Zrotation
											JOINT mixamorig:RightHandMiddle4
											{
												OFFSET -2.946640 0.000000 -0.000156
												CHANNELS 6 Xposition Yposition Zposition Xrotation Yrotation Zrotation
												End Site
												{
													OFFSET -294.664337 0.000000 -0.113670
												}
											}
										}
									}
								}
								JOINT mixamorig:RightHandRing1
								{
									OFFSET -9.103600 -0.043076 -1.865134
									CHANNELS 6 Xposition Yposition Zposition Xrotation Yrotation Zrotation
									JOINT mixamorig:RightHandRing2
									{
										OFFSET -3.379288 0.000000 -0.001055
										CHANNELS 6 Xposition Yposition Zposition Xrotation Yrotation Zrotation
										JOINT mixamorig:RightHandRing3
										{
											OFFSET -2.889687 -0.000015 0.000379
											CHANNELS 6 Xposition Yposition Zposition Xrotation Yrotation Zrotation
											JOINT mixamorig:RightHandRing4
											{
												OFFSET -2.638809 -0.000015 0.000941
												CHANNELS 6 Xposition Yposition Zposition Xrotation Yrotation Zrotation
												End Site
												{
													OFFSET -263.880371 0.000000 0.516020
												}
											}
										}
									}
								}
								JOINT mixamorig:RightHandPinky1
								{
									OFFSET -8.076683 -0.486710 -3.806280
									CHANNELS 6 Xposition Yposition Zposition Xrotation Yrotation Zrotation
									JOINT mixamorig:RightHandPinky2
									{
										OFFSET -3.600014 -0.000015 -0.003747
										CHANNELS 6 Xposition Yposition Zposition Xrotation Yrotation Zrotation
										JOINT mixamorig:RightHandPinky3
										{
											OFFSET -2.099983 0.000000 -0.005739
											CHANNELS 6 Xposition Yposition Zposition Xrotation Yrotation Zrotation
											JOINT mixamorig:RightHandPinky4
											{
												OFFSET -2.115768 -0.000031 -0.003680
												CHANNELS 6 Xposition Yposition Zposition Xrotation Yrotation Zrotation
												End Site
												{
													OFFSET -211.577087 0.000000 -0.350686
												}
											}
										}
									}
								}
							}
						}
					}
				}
				JOINT mixamorig:LeftShoulder
				{
					OFFSET 4.570447 11.014725 -2.160855
					CHANNELS 6 Xposition Yposition Zposition Xrotation Yrotation Zrotation
					JOINT mixamorig:LeftArm
					{
						OFFSET 10.592371 -0.524597 -2.232119
						CHANNELS 6 Xposition Yposition Zposition Xrotation Yrotation Zrotation
						JOINT mixamorig:LeftForeArm
						{
							OFFSET 27.841532 -0.000031 0.000026
							CHANNELS 6 Xposition Yposition Zposition Xrotation Yrotation Zrotation
							JOINT mixamorig:LeftHand
							{
								OFFSET 28.328846 -0.000061 0.000022
								CHANNELS 6 Xposition Yposition Zposition Xrotation Yrotation Zrotation
								JOINT mixamorig:LeftHandThumb1
								{
									OFFSET 2.466141 -1.576172 2.681732
									CHANNELS 6 Xposition Yposition Zposition Xrotation Yrotation Zrotation
									JOINT mixamorig:LeftHandThumb2
									{
										OFFSET 3.217812 -1.872070 1.916482
										CHANNELS 6 Xposition Yposition Zposition Xrotation Yrotation Zrotation
										JOINT mixamorig:LeftHandThumb3
										{
											OFFSET 2.656029 -1.528778 1.514513
											CHANNELS 6 Xposition Yposition Zposition Xrotation Yrotation Zrotation
											JOINT mixamorig:LeftHandThumb4
											{
												OFFSET 2.020889 -1.154053 1.115139
												CHANNELS 6 Xposition Yposition Zposition Xrotation Yrotation Zrotation
												End Site
												{
													OFFSET 190.885437 -115.081749 130.048782
												}
											}
										}
									}
								}
								JOINT mixamorig:LeftHandIndex1
								{
									OFFSET 9.109314 -0.518021 2.259871
									CHANNELS 6 Xposition Yposition Zposition Xrotation Yrotation Zrotation
									JOINT mixamorig:LeftHandIndex2
									{
										OFFSET 3.699989 0.000000 -0.000322
										CHANNELS 6 Xposition Yposition Zposition Xrotation Yrotation Zrotation
										JOINT mixamorig:LeftHandIndex3
										{
											OFFSET 2.850006 0.000000 0.000352
											CHANNELS 6 Xposition Yposition Zposition Xrotation Yrotation Zrotation
											JOINT mixamorig:LeftHandIndex4
											{
												OFFSET 2.774864 -0.000031 -0.000027
												CHANNELS 6 Xposition Yposition Zposition Xrotation Yrotation Zrotation
												End Site
												{
													OFFSET 277.486267 0.000000 -0.009857
												}
											}
										}
									}
								}
								JOINT mixamorig:LeftHandMiddle1
								{
									OFFSET 9.533394 0.000061 0.000044
									CHANNELS 6 Xposition Yposition Zposition Xrotation Yrotation Zrotation
									JOINT mixamorig:LeftHandMiddle2
									{
										OFFSET 3.699989 -0.000015 -0.000231
										CHANNELS 6 Xposition Yposition Zposition Xrotation Yrotation Zrotation
										JOINT mixamorig:LeftHandMiddle3
										{
											OFFSET 2.949997 -0.000015 -0.000059
											CHANNELS 6 Xposition Yposition Zposition Xrotation Yrotation Zrotation
											JOINT mixamorig:LeftHandMiddle4
											{
												OFFSET 2.952896 0.000031 0.000063
												CHANNELS 6 Xposition Yposition Zposition Xrotation Yrotation Zrotation
												End Site
												{
													OFFSET 295.289337 0.000000 0.022810
												}
											}
										}
									}
								}
								JOINT mixamorig:LeftHandRing1
								{
									OFFSET 9.104523 -0.042999 -1.865074
									CHANNELS 6 Xposition Yposition Zposition Xrotation Yrotation Zrotation
									JOINT mixamorig:LeftHandRing2
									{
										OFFSET 3.150009 -0.000031 0.000043
										CHANNELS 6 Xposition Yposition Zposition Xrotation Yrotation Zrotation
										JOINT mixamorig:LeftHandRing3
										{
											OFFSET 2.949982 -0.000015 0.000040
											CHANNELS 6 Xposition Yposition Zposition Xrotation Yrotation Zrotation
											JOINT mixamorig:LeftHandRing4
											{
												OFFSET 2.644348 0.000000 0.000057
												CHANNELS 6 Xposition Yposition Zposition Xrotation Yrotation Zrotation
												End Site
												{
													OFFSET 264.434631 0.000000 0.012105
												}
											}
										}
									}
								}
								JOINT mixamorig:LeftHandPinky1
								{
									OFFSET 8.077789 -0.486847 -3.806259
									CHANNELS 6 Xposition Yposition Zposition Xrotation Yrotation Zrotation
									JOINT mixamorig:LeftHandPinky2
									{
										OFFSET 3.599953 0.000031 0.014727
										CHANNELS 6 Xposition Yposition Zposition Xrotation Yrotation Zrotation
										JOINT mixamorig:LeftHandPinky3
										{
											OFFSET 2.100021 0.000015 0.007705
											CHANNELS 6 Xposition Yposition Zposition Xrotation Yrotation Zrotation
											JOINT mixamorig:LeftHandPinky4
											{
												OFFSET 2.125504 0.000031 0.007517
												CHANNELS 6 Xposition Yposition Zposition Xrotation Yrotation Zrotation
												End Site
												{
													OFFSET 212.550781 0.000000 0.625752
												}
											}
										}
									}
								}
							}
						}
					}
				}
			}
		}
	}
	JOINT mixamorig:RightUpLeg
	{
		OFFSET -8.207787 -6.751648 -1.599560
		CHANNELS 6 Xposition Yposition Zposition Xrotation Yrotation Zrotation
		JOINT mixamorig:RightLeg
		{
			OFFSET -0.000002 -44.370117 0.345942
			CHANNELS 6 Xposition Yposition Zposition Xrotation Yrotation Zrotation
			JOINT mixamorig:RightFoot
			{
				OFFSET 0.000003 -44.423679 -3.043532
				CHANNELS 6 Xposition Yposition Zposition Xrotation Yrotation Zrotation
				JOINT mixamorig:RightToeBase
				{
					OFFSET -0.000002 -8.728671 10.710558
					CHANNELS 6 Xposition Yposition Zposition Xrotation Yrotation Zrotation
					JOINT mixamorig:RightToe_End
					{
						OFFSET -0.000001 -0.000679 9.278119
						CHANNELS 6 Xposition Yposition Zposition Xrotation Yrotation Zrotation
						End Site
						{
							OFFSET 0.000000 -0.067690 927.812134
						}
					}
				}
			}
		}
	}
	JOINT mixamorig:LeftUpLeg
	{
		OFFSET 8.207793 -6.751686 -1.599556
		CHANNELS 6 Xposition Yposition Zposition Xrotation Yrotation Zrotation
		JOINT mixamorig:LeftLeg
		{
			OFFSET -0.000004 -44.370014 0.346954
			CHANNELS 6 Xposition Yposition Zposition Xrotation Yrotation Zrotation
			JOINT mixamorig:LeftFoot
			{
				OFFSET -0.000001 -44.423672 -3.044401
				CHANNELS 6 Xposition Yposition Zposition Xrotation Yrotation Zrotation
				JOINT mixamorig:LeftToeBase
				{
					OFFSET -0.000002 -8.728669 10.710558
					CHANNELS 6 Xposition Yposition Zposition Xrotation Yrotation Zrotation
					JOINT mixamorig:LeftToe_End
					{
						OFFSET -0.000003 -0.000679 9.278133
						CHANNELS 6 Xposition Yposition Zposition Xrotation Yrotation Zrotation
						End Site
						{
							OFFSET 0.000000 -0.068021 927.813477
						}
					}
				}
			}
		}
	}
}
MOTION
Frames: 3
Frame Time: 0.033333
0.000006 104.270477 1.554256 0.000010 0.000003 -0.000113 -0.000005 10.181587 0.131522 0.000001 -0.000003 0.000084 -0.000000 9.893967 -1.470711 0.000001 0.000000 -0.000000 -0.000000 9.220802 -1.370642 0.000000 -0.000000 -0.000000 0.000001 16.740433 -2.049030 0.000000 -0.000000 -0.000000 0.000000 9.617859 1.685014 0.000000 0.000000 0.000000 0.000002 22.037384 7.501101 0.000000 -0.000000 0.000000 -4.569968 11.014880 -2.160881 0.000008 0.000001 -0.000038 -10.592876 -0.524745 -2.231918 76.589343 26.136571 -20.772410 -27.841518 0.000008 0.000561 -52.866996 109.769172 70.516335 -28.328827 0.000021 0.000021 -0.000321 -0.000046 0.000009 -2.464420 -1.573788 2.682344 -46.130432 -162.928917 -5.489525 -3.215261 -1.872579 1.924658 154.022747 32.362174 9.042650 -2.654955 -1.527884 1.513097 148.131995 26.718553 -36.931909 -2.018850 -1.152016 1.108053 -0.000006 -0.000003 0.000002 -9.108395 -0.517552 2.260150 105.052804 17.722242 -23.051907 -3.700054 0.000320 0.001525 101.295387 13.870739 -16.846440 -2.850078 0.000376 -0.000229 100.470976 10.610319 -12.733712 -2.772172 -0.000018 -0.000019 -0.000001 0.000000 -0.000003 -9.532619 0.000284 0.000256 95.573041 18.012829 -19.980269 -3.700072 0.000322 0.003973 93.926665 11.952737 -12.693408 -2.950062 0.000335 -0.001817 95.393817 10.785826 -11.837215 -2.946622 0.000001 -0.000155 -0.000000 0.000001 -0.000001 -9.103735 -0.042766 -1.864886 91.421652 19.397918 -19.829069 -3.379336 0.000309 -0.000824 90.347536 9.113199 -9.185739 -2.889751 0.000345 0.000616 95.450651 5.990142 -6.637089 -2.638804 -0.000015 0.000938 0.000000 0.000002 0.000001 -8.076766 -0.486385 -3.806023 85.161175 19.628845 -17.922546 -3.600051 0.000277 -0.003533 86.412377 8.543078 -7.691765 -2.100008 0.000325 -0.005493 88.810320 4.965437 -4.650725 -2.115778 -0.000055 -0.003677 0.000000 0.000001 -0.000005 4.570446 11.014691 -2.160851 -0.000018 0.000010 -0.000021 10.592403 -0.524466 -2.232354 74.831648 -14.244159 10.920115 27.841812 0.000095 -0.000208 99.911481 -71.069628 80.717810 28.328838 -0.000029 0.000022 0.000020 -0.000088 0.000000 2.466059 -1.576179 2.681916 -33.234078 160.557025 -24.031949 3.217850 -1.871805 1.916384 157.123106 -27.078761 22.516231 2.656097 -1.528633 1.514450 137.824202 -28.371665 47.150497 2.020887 -1.154073 1.115147 0.000001 0.000006 0.000004 9.109366 -0.517876 2.259727 77.643070 -16.599062 13.379073 3.700037 0.000130 -0.000451 74.141321 -18.284463 13.877840 2.850056 0.000147 0.000221 72.691606 -15.309869 11.294849 2.774869 -0.000047 -0.000028 -0.000002 0.000003 0.000001 9.533466 0.000182 -0.000080 75.519052 -15.740079 12.215217 3.700041 0.000139 -0.000376 79.064125 -15.978082 13.211255 2.950075 0.000137 -0.000192 78.549143 -18.725387 15.360412 2.952876 -0.000029 0.000064 0.000000 0.000000 -0.000001 9.104593 -0.042880 -1.865232 74.505261 -15.709106 11.979713 3.150051 0.000185 -0.000097 81.181798 -14.509782 12.451658 2.950032 0.000143 -0.000077 82.065426 -15.227902 13.273194 2.644338 0.000031 0.000055 -0.000001 -0.000000 0.000001 8.077851 -0.486755 -3.806410 67.199800 -17.525137 12.100239 3.600021 0.000140 0.014570 69.628615 -15.634231 11.277713 2.100033 0.000130 0.007551 72.208179 -14.234309 10.772380 2.125505 -0.000001 0.007515 0.000002 -0.000001 -0.000000 -8.207786 -6.751667 -1.599560 -0.077001 -0.000003 0.000080 -0.000002 -44.370110 0.345938 0.153719 -0.000000 -0.000000 0.000000 -44.423679 -3.043532 -0.076700 0.000000 -0.000002 -0.000006 -8.728667 10.710559 -0.000009 -0.000000 -0.000000 -0.000001 -0.000679 9.278123 0.000000 -0.000000 -0.000000 8.207792 -6.751710 -1.599556 -0.074518 -0.000003 0.000081 -0.000002 -44.370014 0.346960 0.148822 0.000002 0.000000 -0.000001 -44.423664 -3.044403 -0.074314 0.000000 -0.000002 -0.000004 -8.728671 10.710558 0.000007 -0.000000 -0.000000 0.000000 -0.000680 9.278137 -0.000000 0.000000 -0.000001 
0.000006 104.270477 1.554256 0.000010 0.000003 -0.000113 -0.000005 10.181587 0.131522 0.000001 -0.000003 0.000084 -0.000000 9.893967 -1.470711 0.000001 0.000000 -0.000000 -0.000000 9.220802 -1.370642 0.000000 -0.000000 -0.000000 0.000001 16.740433 -2.049030 0.000000 -0.000000 -0.000000 0.000000 9.617859 1.685014 0.000000 0.000000 0.000000 0.000002 22.037384 7.501101 0.000000 -0.000000 0.000000 -4.569968 11.014880 -2.160881 0.000008 0.000001 -0.000038 -10.592875 -0.524781 -2.231879 76.678654 33.524696 -26.797451 -27.841515 -0.000001 0.000540 -50.939202 107.978454 66.477220 -28.328821 0.000022 0.000030 -0.000319 -0.000043 0.000007 -2.464407 -1.573789 2.682349 -45.097314 -160.938709 -3.248745 -3.215262 -1.872534 1.924623 150.064488 33.785357 24.812488 -2.654939 -1.527881 1.513066 148.840354 27.168768 -31.545331 -2.018831 -1.152012 1.108063 -0.000001 0.000000 0.000004 -9.108385 -0.517572 2.260157 104.950303 17.089511 -22.199155 -3.700080 0.000293 0.001538 101.152438 14.801110 -17.927274 -2.850092 0.000362 -0.000248 98.586677 12.261198 -14.231514 -2.772178 -0.000002 -0.000020 -0.000000 -0.000001 -0.000000 -9.532586 0.000268 0.000244 92.855028 16.783327 -17.778448 -3.700049 0.000339 0.003979 94.749347 11.108944 -11.961801 -2.950054 0.000344 -0.001817 95.966262 11.207906 -12.423260 -2.946611 0.000001 -0.000155 -0.000003 0.000001 0.000000 -9.103717 -0.042758 -1.864877 91.413162 19.102291 -19.523727 -3.379335 0.000320 -0.000815 92.995587 6.663388 -7.037907 -2.889754 0.000373 0.000624 97.623716 5.244397 -6.042659 -2.638808 -0.000015 0.000942 0.000001 -0.000000 -0.000000 -8.076771 -0.486398 -3.806023 84.058694 22.053844 -19.781201 -3.600046 0.000277 -0.003541 85.811888 7.579977 -6.720066 -2.100009 0.000332 -0.005503 88.144916 3.478745 -3.162248 -2.115757 -0.000051 -0.003683 -0.000002 0.000002 -0.000005 4.570446 11.014691 -2.160851 -0.000018 0.000010 -0.000021 10.592394 -0.524481 -2.232348 74.624400 -9.867184 7.527992 27.841814 0.000058 -0.000237 99.770492 -72.778070 82.353858 28.328817 -0.000029 0.000023 0.000022 -0.000089 -0.000000 2.466255 -1.576025 2.681815 6.631999 173.072936 -105.676680 3.217872 -1.871857 1.916423 163.535042 -21.035683 44.068674 2.656100 -1.528675 1.514502 139.112047 -27.525948 60.718367 2.020895 -1.154069 1.115150 -0.000003 0.000003 0.000004 9.109382 -0.517902 2.259739 78.599160 -20.918250 17.173162 3.700041 0.000141 -0.000464 76.890028 -12.922157 10.288142 2.850037 0.000177 0.000201 75.642439 -10.135340 7.874955 2.774883 -0.000031 -0.000033 0.000002 0.000002 0.000001 9.533465 0.000178 -0.000086 78.505177 -19.786546 16.213580 3.700025 0.000140 -0.000362 80.806042 -11.296240 9.621195 2.950044 0.000159 -0.000195 80.704306 -11.060229 9.407656 2.952867 -0.000016 0.000057 0.000000 0.000001 -0.000000 9.104577 -0.042877 -1.865215 78.955040 -19.437310 16.061116 3.150070 0.000179 -0.000101 81.547801 -12.861312 11.104887 2.950003 0.000163 -0.000086 81.529748 -10.517901 9.075599 2.644338 0.000016 0.000061 -0.000000 -0.000001 0.000001 8.077858 -0.486749 -3.806393 72.624336 -21.012064 15.981538 3.600028 0.000144 0.014596 72.163489 -17.613847 13.278764 2.100035 0.000156 0.007549 74.098270 -12.937773 10.156582 2.125500 -0.000013 0.007516 0.000000 0.000002 0.000001 -8.207786 -6.751667 -1.599560 -0.077001 -0.000003 0.000080 -0.000002 -44.370110 0.345938 0.153719 -0.000000 -0.000000 0.000000 -44.423679 -3.043532 -0.076700 0.000000 -0.000002 -0.000006 -8.728667 10.710559 -0.000009 -0.000000 -0.000000 -0.000001 -0.000679 9.278123 0.000000 -0.000000 -0.000000 8.207792 -6.751710 -1.599556 -0.074518 -0.000003 0.000081 -0.000002 -44.370014 0.346960 0.148822 0.000002 0.000000 -0.000001 -44.423664 -3.044403 -0.074314 0.000000 -0.000002 -0.000004 -8.728671 10.710558 0.000007 -0.000000 -0.000000 0.000000 -0.000680 9.278137 -0.000000 0.000000 -0.000001 
0.000006 104.270477 1.554256 0.000010 0.000003 -0.000113 -0.000005 10.181587 0.131522 0.000001 -0.000003 0.000084 -0.000000 9.893967 -1.470711 0.000001 0.000000 -0.000000 -0.000000 9.220802 -1.370642 0.000000 -0.000000 -0.000000 0.000001 16.740433 -2.049030 0.000000 -0.000000 -0.000000 0.000000 9.617859 1.685014 0.000000 0.000000 0.000000 0.000002 22.037384 7.501101 0.000000 -0.000000 0.000000 -4.569968 11.014880 -2.160881 0.000008 0.000001 -0.000038 -10.592862 -0.524790 -2.231860 76.552084 38.363762 -30.699761 -27.841520 0.000009 0.000543 -50.260948 104.439931 62.362366 -28.328821 0.000009 0.000029 -0.000319 -0.000047 0.000010 -2.464391 -1.573795 2.682343 -44.506998 -160.666745 -1.861942 -3.215262 -1.872539 1.924620 151.172577 33.677716 21.840037 -2.654952 -1.527870 1.513079 148.587965 27.111756 -32.444413 -2.018827 -1.151996 1.108061 -0.000004 -0.000006 0.000002 -9.108377 -0.517567 2.260174 105.266739 17.028592 -22.244753 -3.700067 0.000314 0.001537 101.126203 14.840481 -17.966531 -2.850104 0.000366 -0.000245 98.607284 12.116556 -14.069129 -2.772179 -0.000016 -0.000016 -0.000000 -0.000003 0.000000 -9.532581 0.000261 0.000250 93.107192 16.587528 -17.649224 -3.700081 0.000320 0.003971 94.807206 11.010316 -11.866864 -2.950053 0.000336 -0.001810 96.173729 11.143649 -12.396814 -2.946626 0.000001 -0.000157 0.000002 -0.000002 0.000001 -9.103688 -0.042759 -1.864866 91.242496 18.584665 -18.938597 -3.379318 0.000342 -0.000820 93.427671 6.595546 -7.019105 -2.889752 0.000362 0.000640 98.407009 5.266192 -6.151774 -2.638803 -0.000002 0.000941 -0.000001 0.000001 0.000001 -8.076755 -0.486401 -3.806028 83.752551 21.212356 -18.918550 -3.600034 0.000281 -0.003547 85.985238 7.176366 -6.365773 -2.099978 0.000322 -0.005520 88.614219 3.314817 -3.028770 -2.115772 -0.000056 -0.003677 -0.000001 -0.000002 -0.000005 4.570446 11.014691 -2.160851 -0.000018 0.000010 -0.000021 10.592424 -0.524465 -2.232384 74.116111 -21.711194 16.479670 27.841810 0.000043 -0.000196 100.595245 -76.515023 87.046369 28.328836 -0.000029 0.000022 0.000022 -0.000090 0.000001 2.466275 -1.575975 2.681803 12.036958 178.685235 -118.158994 3.217864 -1.871880 1.916443 162.692893 -18.614152 53.752612 2.656106 -1.528682 1.514492 139.782827 -27.212469 61.732780 2.020871 -1.154082 1.115142 0.000000 0.000003 0.000008 9.109381 -0.517889 2.259748 79.469470 -22.202363 18.515823 3.700044 0.000146 -0.000468 76.589684 -13.871143 10.986516 2.850038 0.000175 0.000202 75.164941 -10.577676 8.149205 2.774879 -0.000046 -0.000021 0.000000 0.000002 -0.000000 9.533466 0.000176 -0.000076 78.560160 -20.919360 17.165394 3.700032 0.000155 -0.000382 80.820645 -11.588215 9.872924 2.950030 0.000152 -0.000215 81.151622 -10.725815 9.194907 2.952881 -0.000015 0.000063 0.000001 0.000001 -0.000000 9.104584 -0.042884 -1.865221 79.228938 -20.530123 17.051661 3.150044 0.000165 -0.000102 81.563626 -13.021136 11.246287 2.950014 0.000170 -0.000082 81.610187 -10.014236 8.652704 2.644340 0.000030 0.000052 -0.000001 -0.000001 0.000000 8.077831 -0.486748 -3.806388 72.939556 -21.778910 16.651617 3.600013 0.000137 0.014560 71.803853 -17.935223 13.429055 2.100040 0.000162 0.007552 73.663023 -12.749019 9.934140 2.125495 0.000001 0.007509 -0.000001 -0.000004 0.000000 -8.207786 -6.751667 -1.599560 -0.077001 -0.000003 0.000080 -0.000002 -44.370110 0.345938 0.153719 -0.000000 -0.000000 0.000000 -44.423679 -3.043532 -0.076700 0.000000 -0.000002 -0.000006 -8.728667 10.710559 -0.000009 -0.000000 -0.000000 -0.000001 -0.000679 9.278123 0.000000 -0.000000 -0.000000 8.207792 -6.751710 -1.599556 -0.074518 -0.000003 0.000081 -0.000002 -44.370014 0.346960 0.148822 0.000002 0.000000 -0.000001 -44.423664 -3.044403 -0.074314 0.000000 -0.000002 -0.000004 -8.728671 10.710558 0.000007 -0.000000 -0.000000 0.000000 -0.000680 9.278137 -0.000000 0.000000 -0.000001 
